<svg xmlns="http://www.w3.org/2000/svg" viewBox="0 0 106.1 105.86"><defs><style>.cls-1{fill:#9d6538;}.cls-2{fill:#d1864a;}.cls-3{fill:#f2f2f2;}.cls-4{fill:#fff;}.cls-5{fill:#f9a7b5;}.cls-6{fill:none;stroke:#000;stroke-linecap:round;stroke-miterlimit:10;}.cls-7{opacity:0.2;}</style></defs><title>Asset 10</title><g id="Layer_2" data-name="Layer 2"><g id="Objects"><path class="cls-1" d="M30.86,51.3a17,17,0,0,0,2,10.86A32.63,32.63,0,0,1,36.9,72.27c.49,2.84,3,5.43,3.58,7.28s1.36,5.18,1.85,7,.86,5.8,0,7.28-3.58,5.3-3.58,6.91,3.08,0,3.08,0,1.48,2.47,3.21,1.48,4.81-6.42,4.81-9,.49-15.05,0-17.89S47,63.76,43.69,60.55,30.86,51.3,30.86,51.3Z"/><path class="cls-1" d="M77.61,64.5c2.34,3.33,4.56,9.86,4.19,12.39S80.45,86.34,79,87.32a6.12,6.12,0,0,0-2.47,5.3c.25,2,1,2.1,1,2.1l1-.49s1.11,1.23,1.6,1.23S83.78,95,84.15,94s-1.36-6.91,0-6.54,2.1,2.59,2.34,1.36a26.65,26.65,0,0,0,0-4.44c0-1,2-5.8,1.85-8.27s-.73-4.93,0-6.54a6.16,6.16,0,0,0-.62-5.92c-1.36-2.22-2.59-4.19-3.7-3.95S77.61,64.5,77.61,64.5Z"/><path class="cls-1" d="M11.74,8.13c.74-2,2.22-6.29,4.19-7.28a4.79,4.79,0,0,1,4.81,0c1.73.74-.25.74-1.73,1.36s-3,4.44-3.33,5.92S11.74,8.13,11.74,8.13Z"/><path class="cls-1" d="M16.58,7.27C18.3,5,19.88,1,24.69.2s8.88,1.15,6,1.52-5.8.75-7.4,2.78S22,8.58,20.74,8.79,16,8.08,16.58,7.27Z"/><path class="cls-2" d="M10.75,9.36C7.92,8.62,1,5.29.15,6.9S2.49,11.46,4,12.69s3.95,1.85,4.93,1.23S10.75,9.36,10.75,9.36Z"/><path class="cls-1" d="M.15,6.9c2.15-.31,5.8,2.65,7.65,3.42s2.34.65,1.85,2.56-1.72,2-3.7.92S1.45,10.71.77,9.39A5.47,5.47,0,0,1,.15,6.9Z"/><path class="cls-2" d="M15.19,6.47C12.25,7,11.27,7.61,9.82,9.08s-3.51,4.6-3,6.82,1.58,3-.08,4.81-3.25,5.67-2.88,7.15.47,3.82,1.53,4.56,2.65-.12,4.44.86,1,8.26,0,10.24,3-2.22,3.52-4.69,1.73-4.81,1.85-3.7-1.36,6.54-2.1,7.4,2.71-.49,4.32-4.44,1.11-7.52,1.85-7.52,1.34,2.55,2.15,5.55C22.59,40.45,28,49.58,30,52.41s4.44,6.41,6.91,9.38,7.15,4.69,8.14,6.66,2.22,8,2,9.5a19.14,19.14,0,0,0-.56,4.69c0,.87,12-6.3,12-6.75-.06-2.81,0-5.9-.09-7.06s.58-.91,3.24-.31c.71.16,11.94-4.2,14.28-4.69s9.25-2.53,11.72-2.9,3,2.56,3.45,5.85,1,4.27,2.84,4.76,2.84.49,2.84,2.22c0,.44,0,1.56-.14,3-.25,4.22,4-4.63,5.07-5.5.42-.33,3.84-1.76,3.71-2.14-1-3-2.49-5.92-2.6-7.34-.12-1.6-1.23-9.75.37-8s3,5.8,1.36-2.22S101.62,33.79,103.27,35c2,1.48,2.7,3.08,1.11-1.23-1.4-3.79-4.81-4.69-5.43-6s.37-2.1-2.71-4.44S90.56,16.76,83.9,16A42.23,42.23,0,0,0,65,18.25c-5.06,2-11.6,6.29-16.41,6.54s-5.92-.12-8,.25-5.43.74-7.15-.86-4.69-7-4.94-8.88-2.34-8.76-6.29-8.82S16.69,6.22,15.19,6.47Z"/><path class="cls-3" d="M13.23,15.61a4.35,4.35,0,0,1,2-3.41,24.22,24.22,0,0,0,2.06-2,18.49,18.49,0,0,1,4.59-3.71c-3.67-.07-5.22-.23-6.67,0a11.91,11.91,0,0,0-2.9.78,4.19,4.19,0,0,1-.74,1.06c-1.69,1.75-3.34,6.57-.34,7.9a2.52,2.52,0,0,0,1.29.33Z"/><path class="cls-3" d="M104.94,67.94a4.8,4.8,0,0,1-2.82.15c-.23.63-.45,1.27-.69,1.9a8.82,8.82,0,0,1-2.07,3.61,8.88,8.88,0,0,1-2.68,1.57c-.18,3.71-.82,12.64-1.56,14-.86,1.6-2.71,4.93-2.71,6.42s1.23.49,2,.74.62,1.6,2.34.86,3.45-2.59,3.58-4.07.86-5.3,1.36-7.77-1.11-12.21,0-13.08,2.1-2.34,3,.49,2.1,1,1.11-2.47C105.51,69.51,105.23,68.71,104.94,67.94Z"/><path class="cls-3" d="M58.43,74.3l0,.05c-2,2-4.39,1.6-6.54.48-.11.44-.14,1-.39,1.89a6.33,6.33,0,0,1-1.56,2.92,7.72,7.72,0,0,1-3.41,1.74,8.9,8.9,0,0,0,.57,4c1.2,3,0,7.15,0,8.76a14.06,14.06,0,0,1-2,5.55,17,17,0,0,0-1.6,3.82c-.25.8,2.34.8,3.08.8s1.11,2.16,2.71,1.42,2.1-2.22,2.71-2.84.74-.86.62-2.59,1.11-2.22,1.11-3.7-.86-3.82-1.11-6.78A23.11,23.11,0,0,1,53.68,82c.49-1.85.62-2.1,2.1-.5s3,1.85,3.58,1.24-.74-2.47-.86-5.55C58.45,76.29,58.44,75.29,58.43,74.3Z"/><path class="cls-3" d="M85.95,58.48a19.05,19.05,0,0,0-6,.23c-2.19.64-3.56,3-5.87,3.8a49.36,49.36,0,0,1-8,1.67c-3.15.49-5.45,1.17-5.67,4.08.88.19,2.08.48,3.71.81a29.42,29.42,0,0,0,11.72-.25c2.34-.49,9.25-7.53,11.72-7.9a2.47,2.47,0,0,1,.63,0C88.25,59.39,88.07,58.58,85.95,58.48Z"/><path class="cls-2" d="M23.33,12.82c-.49-1.85-1.57-8,.76-8.32s4.42,3,4.67,5a15.11,15.11,0,0,1-1,6.66"/><path class="cls-1" d="M25.74,13.31a5.26,5.26,0,0,0-1-3c-.86-1.08-2.1-2.23-1.48-3.44s.84-2.48,3.08-.41,1.62,3.43.93,4.7A11.41,11.41,0,0,1,25.74,13.31Z"/><path class="cls-4" d="M16.58,16.76c-.14-.36,1.21-1.81,1.95-2.26a3.11,3.11,0,0,1,2.89,0c.81.5.56,2.51-.92,2.26a5,5,0,0,1-2-.62S16.71,17.12,16.58,16.76Z"/><path class="cls-5" d="M4.14,26.91A2.4,2.4,0,0,0,5,28.16a3.35,3.35,0,0,0,1.84-.62c.65-.44,1.85-1.64,1.34-1.87s-.51.28-1.11.69-1.13,1.2-1.67,1S4,25.8,4.14,26.91Z"/><path class="cls-6" d="M4.45,30.8c.77.55,2.62.45,3.84,0s4.5-2.22,4.5-2.22"/><ellipse cx="19.95" cy="15.41" rx="1.1" ry="0.37"/><path class="cls-7" d="M88.52,47a19.39,19.39,0,0,1-13.25,8.08,46.8,46.8,0,0,1-19.61-1.38c1.17,7.39-.13,14.46-2.78,22a2.53,2.53,0,0,1-.78,1.13,2.72,2.72,0,0,1-.17.53,29.18,29.18,0,0,1,.29,3.92,2.26,2.26,0,0,1-1.11,2c.56,7.5.35,15.52-3.81,21.66.42.56.94,1.19,1.92.74,1.6-.74,2.1-2.22,2.71-2.84s.74-.86.62-2.59,1.11-2.22,1.11-3.7-.86-3.82-1.11-6.78A23.11,23.11,0,0,1,53.68,82c.49-1.85.62-2.1,2.1-.5s3,1.85,3.58,1.24-.74-2.47-.86-5.55c0-.45,0-.92,0-1.39,0-.08,0-.15,0-.23,0-.36,0-.73,0-1.09,0-2.37,0-4.69-.07-5.67s.41-.93,2.21-.54l.44.1.58.13h0c.71.16,1.54.35,2.56.56a29.42,29.42,0,0,0,11.72-.25A10.57,10.57,0,0,0,79,66.93l.18.37c.33-.27.68-.52,1-.81,1.05-1,3.26-1,3.93.51,4.09,9.28-3.07,18.83-3.17,28.35,1.13-.2,2.91-.65,3.18-1.37.37-1-1.36-6.91,0-6.54s2.1,2.59,2.34,1.36a26.65,26.65,0,0,0,0-4.44c0-1,2-5.8,1.85-8.27s-.73-4.93,0-6.54a6.16,6.16,0,0,0-.62-5.92c-.49-.79-1-1.55-1.41-2.19a4.15,4.15,0,0,1,1.29-.53,2.47,2.47,0,0,1,.63,0,2,2,0,0,1,1.49,1c-.14-1.33-.24-2.67-.36-4C89.06,54.32,88.88,50.63,88.52,47Z"/><path class="cls-7" d="M24.53,42.7l.14-.11c4.7-3.7,5.72-13.82,5.08-19.63l-.43-.69a2.24,2.24,0,0,1,.71-3.2,14.72,14.72,0,0,1-1.52-3.79,9.12,9.12,0,0,0-.18-.9,14.69,14.69,0,0,0,.42-4.9c-.25-2-2.34-5.3-4.67-5-.81.11-1.2.93-1.36,2a3.6,3.6,0,0,0-.51-.06,7.7,7.7,0,0,1,1.11-2c1.6-2,4.57-2.41,7.4-2.78,1.66-.22.95-1-.87-1.41a11.34,11.34,0,0,0-3.91.5c-2.46.79-3.53,2.42-5.12,4.34-.32.38-.64.76-1,1.13a2.51,2.51,0,0,1,.58.14,2.5,2.5,0,0,1,1.7,1.08,7.64,7.64,0,0,1,1.46,3.92C25,14,24.53,17.3,20.94,18.1c-.92.21-1.72.37-2.44.58-1.74,3.71-4.94,6.37-6.87,10.09a2.17,2.17,0,0,1-2.92,1.05A10.68,10.68,0,0,1,4.52,31a2.68,2.68,0,0,0,.86,1.44c1.06.74,2.65-.12,4.44.86s1,8.26,0,10.24,3-2.22,3.52-4.69,1.73-4.81,1.85-3.7-1.36,6.54-2.1,7.4,2.71-.49,4.32-4.44,1.11-7.52,1.85-7.52,1.34,2.55,2.15,5.55a38.7,38.7,0,0,0,2.92,6.7Z"/><path class="cls-7" d="M46.21,72.1a17.15,17.15,0,0,0-1.62-4.3c-2.92-2.65-6.13-3.44-10-9-.89-1.27-2.7-4-3.92-5.47.06.81.23,3.32.41,4.16a2.74,2.74,0,0,1,.31.46C35.75,66.1,42,73.25,43.5,82.62c1,6.22,1.16,12.85-2,18.29l.29-.14a6.66,6.66,0,0,0,1.59,1.71,23,23,0,0,0,4.15-13.21c0-1.95-1.07-4.34-1.18-6.81C46.23,78.78,48,77.57,46.21,72.1Z"/><path class="cls-7" d="M105.73,70.3c-.11-.39-.24-.78-.37-1.17h0c-1-3-2.49-5.92-2.6-7.34-.12-1.6-1.23-9.75.37-8s3,5.8,1.36-2.22S101.62,33.79,103.27,35c2,1.48,2.7,3.08,1.11-1.23-1.4-3.79-4.81-4.69-5.43-6s.37-2.1-2.71-4.44c-2.18-1.65-4.12-4.22-7.41-5.85l.35.44a14.33,14.33,0,0,1,3.54,6.52,20.16,20.16,0,0,1,.46,7.13c.19,2,.33,4.06.56,6.15.79,7.47,3.29,14.78,4.57,22.19.65,3.73,1.67,8.07.4,11.75,1.53,8.32,1.39,17.87-3.82,24.65a2.82,2.82,0,0,1-.22.23c.46.43.6,1.31,2.06.68,1.73-.74,3.45-2.59,3.58-4.07s.86-5.3,1.36-7.77-1.11-12.21,0-13.08,2.1-2.34,3,.49S106.72,73.75,105.73,70.3Z"/></g></g></svg>