<svg xmlns="http://www.w3.org/2000/svg" viewBox="0 0 231.12 186.58"><defs><style>.cls-1{isolation:isolate;}.cls-2{fill:#ccbeb8;}.cls-3{fill:#2e2a29;}.cls-4{fill:#262322;}.cls-5{fill:#823e01;}.cls-6{fill:#7f7671;opacity:0.61;}.cls-12,.cls-19,.cls-6{mix-blend-mode:multiply;}.cls-7{fill:#e97070;}.cls-8{fill:#cc6262;}.cls-9{fill:#e98585;}.cls-10{fill:#5c2c01;}.cls-11{fill:none;}.cls-12,.cls-19{fill:#b3a69f;}.cls-13{fill:#a18b66;}.cls-14{fill:#8f7b5a;}.cls-15{fill:#242424;}.cls-16{fill:#ebebeb;}.cls-17{fill:#c4a97c;}.cls-18{fill:#b59c73;}.cls-19{opacity:0.4;}.cls-20{fill:#a14d01;}.cls-21{fill:#542801;}.cls-22{fill:#d96701;}.cls-23{fill:#693301;}.cls-24{fill:#8f4401;}</style></defs><title>Asset 1</title><g class="cls-1"><g id="Layer_2" data-name="Layer 2"><g id="Objects"><ellipse class="cls-2" cx="128" cy="178.31" rx="92.99" ry="8.28"/><path class="cls-3" d="M173.5,165.34l.51,8.5a3.54,3.54,0,0,1-2,3.4c-3.72,1.83-11.6,4.74-17.32.25,0,0-.64-5.43,7.41-8.95Z"/><path class="cls-4" d="M162.12,168.54l2.76-.78c-1.36,1.17-2.8,2.26-4.25,3.3-1.6,1.16-3.11,2.55-2.27,4.68.71,1.81,2.5,3.1,4.13,4.11a11.7,11.7,0,0,1-7.78-2.37S154.07,172.05,162.12,168.54Z"/><path class="cls-5" d="M175.47,116.23s-5.36,40.65-9.25,46.25a10.33,10.33,0,0,0-5.6,3.49,10.17,10.17,0,0,0-2.11,4.71,24.49,24.49,0,0,0,5.19-.23,28.4,28.4,0,0,0,11.77-4.8l-.68-1.95a9.67,9.67,0,0,1,.29-7.1c3.25-7.33,10.66-24.9,13.29-38.42Z"/><path class="cls-6" d="M172.57,135.82c1.71-10.34,2.94-19.68,2.94-19.68l12.9,1.95c-1.85,9.52-6.07,21-9.54,29.59C178.54,146.87,175,138.48,172.57,135.82Z"/><path class="cls-7" d="M157.46,116.72,177.17,98l18.5,25.8a24.68,24.68,0,0,1-10.53,4.28,11.6,11.6,0,0,1-1.92,4.23,1.85,1.85,0,0,1-3.24-.64,15.92,15.92,0,0,1-.55-3.31,25.79,25.79,0,0,1-3.68-.51,10.71,10.71,0,0,1-2,3.16,1.85,1.85,0,0,1-3.17-1,15.48,15.48,0,0,1-.2-3.93c-.9-.39-1.81-.84-2.73-1.34a10.71,10.71,0,0,1-2.31,2.92,1.85,1.85,0,0,1-3-1.29,14.81,14.81,0,0,1,.46-4.87A49.46,49.46,0,0,1,157.46,116.72Z"/><path class="cls-8" d="M176.92,115c-4.65.62-9.21,1.76-13.88,2.28a42.52,42.52,0,0,1-4.61.39c-.32-.32-.65-.64-1-1L177.17,98l12.26,17.11A46.86,46.86,0,0,0,176.92,115Z"/><path class="cls-9" d="M157.46,116.88l2.89-2.74c12.77,18.08,33.05,8,33.83,7.71l1.5,2.1a24.68,24.68,0,0,1-10.53,4.28,11.6,11.6,0,0,1-1.92,4.23,1.85,1.85,0,0,1-3.24-.64,15.92,15.92,0,0,1-.55-3.31,25.79,25.79,0,0,1-3.68-.51,10.71,10.71,0,0,1-2,3.16,1.85,1.85,0,0,1-3.17-1,15.48,15.48,0,0,1-.2-3.93c-.9-.39-1.81-.84-2.73-1.34a10.71,10.71,0,0,1-2.31,2.92,1.85,1.85,0,0,1-3-1.29,14.81,14.81,0,0,1,.46-4.87A49.44,49.44,0,0,1,157.46,116.88Z"/><path class="cls-3" d="M72.48,165.34l.51,8.5a3.54,3.54,0,0,1-2,3.4c-3.72,1.83-11.6,4.74-17.32.25,0,0-.64-5.43,7.41-8.95Z"/><path class="cls-4" d="M61.1,168.54l11.38-3.2,0,.38-7.87,2.21c-8.05,3.52-7.41,8.95-7.41,8.95a12,12,0,0,0,8.56,2.33c-3.8,1-8.39,1.18-12.09-1.72C53.69,177.48,53,172.05,61.1,168.54Z"/><path class="cls-3" d="M90.25,171.43l.51,8.5a3.54,3.54,0,0,1-2,3.4c-3.72,1.83-11.6,4.74-17.32.25,0,0-.64-5.43,7.41-8.95Z"/><path class="cls-4" d="M78.87,174.62l11.38-3.2,0,.38L82.4,174C74.35,177.53,75,183,75,183a12,12,0,0,0,8.56,2.33c-3.8,1-8.39,1.18-12.09-1.72C71.46,183.57,70.82,178.14,78.87,174.62Z"/><path class="cls-5" d="M65.2,113.31s-2.19,19,5.11,29c0,0-.6,11.1-4.13,19.18-1.71.17-6.7,3.95-6.34,7.6,0,0,11,1.58,18-2.31A25.53,25.53,0,0,1,75.67,152s5.84-39.68,14.12-43.33C89.79,108.69,77.86,103.33,65.2,113.31Z"/><path class="cls-6" d="M68.49,139.41c-5.09-10.35-3.29-25.93-3.29-25.93,12.66-10,24.59-4.63,24.59-4.63-6.6,2.91-11.65,28.73-13.43,39.07C73.74,145.08,71.14,142.23,68.49,139.41Z"/><path class="cls-5" d="M179.77,37.28c-24.1,6.67-42,2.06-66.86-2.6-31.16-5.84-42.36-4.38-60.13-7.06-8.24-1.24-25.93,8.29-34,10.3L33.24,75.84s1.45,69.52,68.31,40.31c0,0,36.35,26.61,79.19-13C180.74,103.17,200.87,31.44,179.77,37.28Z"/><path class="cls-3" d="M204.62,170.39l.51,8.5a3.54,3.54,0,0,1-2,3.4c-3.72,1.83-11.6,4.74-17.32.25,0,0-.64-5.43,7.41-8.95Z"/><path class="cls-4" d="M193.41,173.59l2.67-.75a15.55,15.55,0,0,0-3.47,3c-.65.75-1.25,1.55-1.84,2.34l-.8,1.06a6.87,6.87,0,0,0-1,1.22,2.51,2.51,0,0,0,.49,1.92,7.24,7.24,0,0,0,3.55,2.57,11.47,11.47,0,0,1-7-2.37S185.36,177.1,193.41,173.59Z"/><path class="cls-10" d="M207.59,48a18.57,18.57,0,0,1,8.33,4.42A16.88,16.88,0,0,1,220.73,60a24,24,0,0,1,.6,9.19c-.16,1.61-.41,3.26-.71,4.93l-1,5.11a134.68,134.68,0,0,0-2.6,21.18c-.06,1.8,0,3.6,0,5.4.06.9.09,1.8.16,2.7s.18,1.8.3,2.69a48.78,48.78,0,0,0,2.5,10.51l2.35-.63A73.69,73.69,0,0,1,222,100.7c.33-3.39.89-6.77,1.48-10.16s1.3-6.77,2-10.18c.36-1.69.73-3.42,1.06-5.19s.62-3.59.78-5.46a31.88,31.88,0,0,0,0-5.75A22.08,22.08,0,0,0,226,58.15a19.67,19.67,0,0,0-7.34-9.26,18.21,18.21,0,0,0-10.9-3.28Z"/><path class="cls-3" d="M225.72,123.19c3.71,5.79,4.52,8.71,5.33,17.8a22.19,22.19,0,0,1-5.48,16c1.75-3.92.77-8.54-1-12.44s-4.3-7.47-5.77-11.5c-1.18-3.23-1.9-7.89.05-11S223.93,120.39,225.72,123.19Z"/><path class="cls-5" d="M159.21,72.13C152.75,44,186.39,23.76,208,42.93l.84.77s22.88,21.18-3.41,59.88c0,0,1.46,16.31,3.16,21.18l1.84,2.14a7.81,7.81,0,0,1,.69,9.25c-6.65,10.61-5.79,15.31-5.21,35.19,0,0-8,7.3-16.23,4.54l3.08-5c1.7-1.58,3.67-3.82,3.71-6.14l.43-29s-5.36-5.84-6.57-12.9C190.32,122.81,165.7,100.33,159.21,72.13Z"/><path class="cls-10" d="M202,113.56c-.85-1.89-1.78-5.85-1.42-6.44a9,9,0,0,1,1.25-1.06c1.86-1.76,3.78-3.45,5.59-5.26-.6,1-1.23,1.92-1.89,2.89,0,0,1.54,14.91,3,21A60.33,60.33,0,0,1,202,113.56Z"/><path class="cls-11" d="M85.08,34.63c1.7,2.92,1.62,7.17-1.08,9.21a8.24,8.24,0,0,1-5.28,1.31C71.3,44.91,60.09,36.78,62,28.75c6.2.59,12.14.88,19.29,1.51A18,18,0,0,1,85.08,34.63Z"/><path class="cls-12" d="M47.67,28.6c1,2.68,6.3,17.24-1.14,32.05a39.51,39.51,0,0,1-13.39,15c-1.55-4-3.52-9-5.31-14.54-2.68-8.25-4.18-19-1.74-28.54Z"/><path class="cls-13" d="M10.51.55a17.75,17.75,0,0,0,.83,4.52,17.52,17.52,0,0,0,2,4.29,18.12,18.12,0,0,0,1.49,2,17.53,17.53,0,0,0,1.83,1.74,18.7,18.7,0,0,0,4.4,2.68A3.2,3.2,0,1,0,22.91,9.7h-.08a13.09,13.09,0,0,1-3.46-.84,12.72,12.72,0,0,1-1.66-.8A14.14,14.14,0,0,1,16.16,7,14.43,14.43,0,0,1,13.47,4,16.19,16.19,0,0,1,11.55.4l0,0a.53.53,0,0,0-1,.21Z"/><path class="cls-14" d="M17,9.91a20.66,20.66,0,0,0,5.84,2.91,18.58,18.58,0,0,0,2.62.65A3.2,3.2,0,0,1,21,15.62a18.7,18.7,0,0,1-4.4-2.68,17.54,17.54,0,0,1-1.83-1.74,18.17,18.17,0,0,1-1.49-2,17.52,17.52,0,0,1-2-4.29,18.65,18.65,0,0,1-.7-3.13A19.5,19.5,0,0,0,17,9.91Z"/><path class="cls-5" d="M37,58.28s-3.21,4.12-6.79,4.87C20,65.3,16.33,62.41,16.33,62.41A5.68,5.68,0,0,1,12.65,57Z"/><path class="cls-5" d="M36.34,55.85S33.12,60,29.55,60.71C19.33,62.86,15.68,60,15.68,60A5.68,5.68,0,0,1,12,54.52Z"/><path class="cls-5" d="M19.66,18.53s.89,5.61-2.07,8.11A11.7,11.7,0,0,1,7,27.09C1.22,24.43-.89,13.87.33,13.07,11,7.46,15.38,21.63,19.66,18.53Z"/><path class="cls-12" d="M11.8,26.21a10.06,10.06,0,0,0,4.64-1.15,6.21,6.21,0,0,0,1.39-4.17c-1.84-.23-3.44-1.66-5.12-3.16-2.12-1.89-4.53-4-7.51-4a7.92,7.92,0,0,0-3.27.77c0,2.25,2,9.07,5.86,10.86a9.52,9.52,0,0,0,4,.9Z"/><path class="cls-5" d="M31.6,6.35s17.7-2.43,19.25,20.36c0,0,5,34.4-19.09,33.45A5.55,5.55,0,0,1,30.61,60c-2.51-.64-13-3.1-17.82-1a10.94,10.94,0,0,1,2-13.94,24.55,24.55,0,0,0-.22-12.61c-2-6.42.89-10.4,2.88-12.39C17.44,20.07,19.65,7.24,31.6,6.35Z"/><path d="M13.5,27.55a3.42,3.42,0,0,1,1,6.6C14.1,31.93,13.33,29.86,13.5,27.55Z"/><path class="cls-15" d="M13.49,28.65a2.31,2.31,0,0,1,.8,4.39A13.1,13.1,0,0,1,13.49,28.65Z"/><path d="M13.59,29.46A1.44,1.44,0,0,1,14.93,31,1.56,1.56,0,0,1,14,32.41a3.52,3.52,0,0,1-.49-2.93Z"/><ellipse class="cls-16" cx="14.47" cy="30.07" rx="0.41" ry="0.46" transform="translate(-13.1 11.26) rotate(-30)"/><path d="M36,33.44a4.42,4.42,0,0,0,.2-.75,5.67,5.67,0,0,0,0-1.64,3.31,3.31,0,0,1,.3-1.76,3.42,3.42,0,1,1,2.62,4.8A7.73,7.73,0,0,0,37.52,34c-.37,0-.72.06-1,.1A.47.47,0,0,1,36,33.44Z"/><circle class="cls-15" cx="39.64" cy="30.61" r="2.5"/><circle cx="39.64" cy="30.61" r="1.87"/><circle class="cls-16" cx="40.61" cy="29.33" r="0.55"/><path class="cls-17" d="M53.06,2.27a20.55,20.55,0,0,1-.53,4.08,11,11,0,0,1-1.41,3.53,4.31,4.31,0,0,1-2.24,1.86,5.52,5.52,0,0,1-2.73-.07l-.24,0A2.87,2.87,0,0,0,42.6,14a2.93,2.93,0,0,0,2.32,3.4,2.89,2.89,0,0,0,.79,0l1.37-.15A5.45,5.45,0,0,0,48.45,17c.46-.15.91-.28,1.35-.47s.87-.49,1.28-.75a8.6,8.6,0,0,0,3.14-4.47,14.13,14.13,0,0,0,.58-4.74,22.23,22.23,0,0,0-.59-4.47.58.58,0,0,0-.7-.44.6.6,0,0,0-.45.56Z"/><path class="cls-18" d="M42.61,14a2.87,2.87,0,0,1,3.31-2.38l.24,0a5.83,5.83,0,0,0,2.64.1c-.33.23-.68.46-1,.68-1.28.78-3.12,1.78-3.28,3.46a2.62,2.62,0,0,0,.3,1.45A2.93,2.93,0,0,1,42.61,14Z"/><path class="cls-19" d="M30.3,40.12A10.88,10.88,0,0,1,36.54,37c2.19-.46,4.7-.45,6.67-1.62a7.74,7.74,0,0,0,3.48-6.3,22,22,0,0,1,1.12-5.7,19.46,19.46,0,0,0,1-5.56,11.2,11.2,0,0,0,.8,2.26q.44,1.57.76,3.17a52.89,52.89,0,0,1,1,7.49c.38,7.37-.15,23-10.84,28a33,33,0,0,1-4.32,1.26,23.44,23.44,0,0,1-11.69-1.7c-.81,1.5,3.59-12.48,3.59-12.5A22.12,22.12,0,0,1,30.3,40.12Z"/><path class="cls-5" d="M47.31,21.89l2-.25c1.09-.14,2.41-1.31,3.81-2.56,2.33-2.07,5.22-4.66,9.13-4.66a10.27,10.27,0,0,1,4.27,1l1.44.65v1.58c0,2.77-2.17,10.71-7.27,13.07a11.94,11.94,0,0,1-5,1.12,12.58,12.58,0,0,1-5.81-1.46l-.27-.15L46.37,29a3,3,0,0,1-.46-.55A10.12,10.12,0,0,1,47.31,21.89Z"/><path class="cls-12" d="M55.61,29.38a9.52,9.52,0,0,0,4-.9c3.88-1.79,5.85-8.61,5.86-10.86a7.92,7.92,0,0,0-3.27-.77c-3,0-5.39,2.15-7.51,4-1.68,1.5-3.43,3-5.27,3.26-4,1.32-.49,3.23,1.54,4.07A10.07,10.07,0,0,0,55.61,29.38Z"/><path class="cls-20" d="M29.2,48.82c.14,1.91,0,6.28-3.55,8.88a5,5,0,0,1-3,.93l-5-.08a5,5,0,0,1-4.68-3.33,14.6,14.6,0,0,1-.81-7,1.69,1.69,0,0,1,1-1.3,17.75,17.75,0,0,1,15.17.46A1.71,1.71,0,0,1,29.2,48.82Z"/><path class="cls-21" d="M36.2,59.79a5.89,5.89,0,0,1-2.79.08c-1-.15-1.91-.39-2.87-.63-1.92-.5-3.84-1-5.83-1.46A29.83,29.83,0,0,0,18.63,57a11.66,11.66,0,0,0-3.11.4,7.86,7.86,0,0,0-2.83,1.35.25.25,0,0,0,.2.44h0c1-.16,1.94-.3,2.89-.38s1.89-.11,2.85-.12a33.79,33.79,0,0,1,5.79.58c1.94.34,3.88.76,5.87,1.1a24.55,24.55,0,0,0,3,.36,5.9,5.9,0,0,0,3.09-.55.24.24,0,0,0-.2-.44Z"/><path class="cls-22" d="M12.46,47.67c0,.53,2.76.24,7.47.45s8.88.36,8.88-.2S25,45.48,20.37,45.48,12.41,47.11,12.46,47.67Z"/><path class="cls-21" d="M26.15,49.16a4.62,4.62,0,0,0-1,.37,8.61,8.61,0,0,0-1,.54c-.31.2-.61.41-.91.64a8,8,0,0,0-.86.76.26.26,0,0,0,.19.45,8,8,0,0,0,1.14-.11c.37-.06.73-.13,1.09-.23a8.55,8.55,0,0,0,1-.32,4.62,4.62,0,0,0,1-.5.89.89,0,0,0-.69-1.6Z"/><path class="cls-21" d="M13.35,50.6a4.63,4.63,0,0,0,1,.5,8.6,8.6,0,0,0,1,.32c.36.09.72.17,1.09.23a7.93,7.93,0,0,0,1.14.11.26.26,0,0,0,.19-.45,7.93,7.93,0,0,0-.86-.76c-.3-.23-.6-.44-.91-.64a8.59,8.59,0,0,0-1-.54A4.62,4.62,0,0,0,14,49a.89.89,0,0,0-.69,1.6Z"/><path class="cls-23" d="M38.9,91.88c4.22,7.93,9.58,15.94,17.7,19.62,4.89.63,3.12-11.09,3.12-11.09l5.35,13.24a50.83,50.83,0,0,0,15.11-1.28,108.9,108.9,0,0,0,15.31-4.24c3-5.81,2.16-19.9,2.16-19.9,3.89,19.8,18.54,30.27,40.57,26,17-3.33,26.37-12.44,25.91-19.76a67.71,67.71,0,0,0-3-15.13c3.89,11.85,15.42,27.91,15.42,27.91-40.41,33.59-74.81,9.41-74.81,9.41-13.28,5.8-29.51,10.36-43.57,4.47-9.26-3.88-15.66-12-19.48-21a69.31,69.31,0,0,1-4.87-19A98.7,98.7,0,0,0,38.9,91.88Z"/><path class="cls-24" d="M175.23,73.19A154.21,154.21,0,0,0,192.92,115s-22.45-14-26.64-38Q166.09,76,166,75C165.47,68.69,173.77,67.1,175.23,73.19Z"/><path class="cls-5" d="M85.32,67.79S102.85,78.5,96,106.74c0,0-8.44,39.6-1.3,62.64,0,0-5.52,1.3-3.57,6.49,0,0-10.39.65-12.66-1.3a10,10,0,0,1,5.84-6.82l-.65-18.18S68.12,123,60,102.85C60,102.85,60,76.23,85.32,67.79Z"/><path class="cls-24" d="M74.72,91.92c-.11-5.18-7.44-6.27-9-1.34a22.11,22.11,0,0,0-1,8.86c1.62,17.85,18.18,39.27,18.18,39.27S75.21,114.18,74.72,91.92Z"/><ellipse class="cls-24" cx="131.53" cy="90.92" rx="21.79" ry="14.85"/></g></g></g></svg>