<svg xmlns="http://www.w3.org/2000/svg" xmlns:xlink="http://www.w3.org/1999/xlink" viewBox="0 0 126.16 149.35"><defs><style>.cls-1{fill:url(#Áåçûìÿííûé_ãðàäèåíò_33);}.cls-2{fill:url(#Áåçûìÿííûé_ãðàäèåíò_33-2);}.cls-3{fill:#933d22;}.cls-4{fill:#7c3319;}.cls-5{fill:#2ec2bb;}.cls-6{fill:#2c8f8a;}.cls-7{fill:#ffc78f;}.cls-25,.cls-27,.cls-29,.cls-8{opacity:0.3;}.cls-29,.cls-9{fill:#e36128;}.cls-10{fill:#fff;}.cls-11{fill:#663a00;}.cls-12{fill:#050300;}.cls-13{fill:#ffbb83;}.cls-14{fill:#a35928;}.cls-15,.cls-16,.cls-17,.cls-20{fill:#f4cf98;}.cls-15{opacity:0.1;}.cls-16{opacity:0.2;}.cls-17{opacity:0.7;}.cls-18{fill:#af9e00;}.cls-19{fill:#ffa05f;}.cls-21{fill:#871300;}.cls-22,.cls-23{fill:#cc2b00;}.cls-23{opacity:0.4;}.cls-24{mask:url(#mask);}.cls-25{fill:url(#Áåçûìÿííûé_ãðàäèåíò_17);}.cls-26{mask:url(#mask-2);}.cls-27{fill:url(#Áåçûìÿííûé_ãðàäèåíò_17-2);}.cls-28{fill:#f4a56e;}.cls-30{fill:#acdde5;}</style><radialGradient id="Áåçûìÿííûé_ãðàäèåíò_33" cx="38.28" cy="29.47" r="5.61" gradientUnits="userSpaceOnUse"><stop offset="0.14" stop-color="#fff"/><stop offset="0.9"/></radialGradient><radialGradient id="Áåçûìÿííûé_ãðàäèåíò_33-2" cx="22.01" cy="37.3" r="5.61" xlink:href="#Áåçûìÿííûé_ãðàäèåíò_33"/><mask id="mask" x="32.56" y="23.96" width="11.44" height="11.02" maskUnits="userSpaceOnUse"><path class="cls-1" d="M34.93,24.95c-1.08,1-2.82,2.34-2.26,5.08.51,2.47,2.3,5.31,5.16,4.91s4.91-1.21,5.72-3.71c1-3.16.36-4.93-2.5-6.6S34.93,24.95,34.93,24.95Z"/></mask><radialGradient id="Áåçûìÿííûé_ãðàäèåíò_17" cx="37.84" cy="30.03" r="4.8" gradientUnits="userSpaceOnUse"><stop offset="0.01" stop-color="#ff4000"/><stop offset="1" stop-color="#fff"/></radialGradient><mask id="mask-2" x="16.29" y="31.79" width="11.44" height="11.02" maskUnits="userSpaceOnUse"><path class="cls-2" d="M18.66,32.79c-1.08,1-2.82,2.34-2.25,5.07.51,2.47,2.29,5.31,5.15,4.91s4.91-1.21,5.72-3.71c1-3.17.36-4.93-2.5-6.6S18.66,32.79,18.66,32.79Z"/></mask><radialGradient id="Áåçûìÿííûé_ãðàäèåíò_17-2" cx="21.56" cy="37.87" r="4.8" xlink:href="#Áåçûìÿííûé_ãðàäèåíò_17"/></defs><title>Asset 11</title><g id="Layer_2" data-name="Layer 2"><g id="Objects"><path class="cls-3" d="M41.67,17.44a13.52,13.52,0,0,0,.13-1.58A10.13,10.13,0,0,1,44.68,17C45.3,2.48,23.12-7.69,6.85,7.61-2.09,16-1.82,35.19,5.19,44.44,7,46.82,9.56,48.7,11,51.32c1.61,2.88.85,5.78,1.35,8.81s2.25,2.7,3.86.71C18,66.66,18.2,71,24.12,74.19c-2.78-5.26,3.16-9.66,4.25-14.48.47,2.1,1,4.19,1.31,6.32,1.61-3.15-5.57-11.4-4.49-14.84,1.29-4.12,10.1-4.08,10.53-8.35.56-5.54,14,3.68,14.8-10.37C50.93,25.56,40.85,20.84,41.67,17.44Z"/><path class="cls-4" d="M44.93,15.91c.1-.42-3-1.34-3.17-.67-1.09-3.12-3.32-.79-8.87-1.77-6.3-1.12-14,1.3-19.53,2.6C10.58,16.73,2,15.75,2,15.75c-2.22,6.1,4.31,17,3.91,23.76a5,5,0,0,1-1.63,3.58c.31.47.62.92.94,1.35C7,46.82,9.56,48.7,11,51.32c1.61,2.87.85,5.78,1.35,8.81S18.2,71,24.12,74.19c-2.78-5.26,3.16-9.66,4.25-14.48.47,2.1,1,4.19,1.31,6.32C31.29,62.87,24,55.1,25.12,51.66,37.78,46.57,38,47.1,35.71,42.84c-2.61-4.91,14,3.68,14.8-10.37C50.93,25.56,44.1,19.32,44.93,15.91Z"/><path class="cls-5" d="M126.12,80.29c.52-6.69-3.65-7.47-17.08-20.72C79.27,30.2,59.34,35.9,59.34,35.9,55.15,40,44.84,75.59,44.53,82.49c-2.87-3.54-18.33-31-18.33-31s-15,2.64-13.49,42.27c.77,20.59.66,29.8,7.61,31.6,3.7,1,12-6,15.5-7.84.25,1.27,0,11.81.33,13.34,15.4.51,62.73.18,68.1-.1-1.83-4.35-8.06-24.4-9-29.09C102.36,101.25,125.51,88.19,126.12,80.29Z"/><path class="cls-6" d="M30,104.62c-1.87-1.69-6.52-7.37-9.44-4.73-2.38,2.14,5.93,2.59,7.24,4-1.72.25-9.37-2.07-9,1.19,2.19.25,5.88-.72,7.6.53-.93.09-11.06-.09-7,3.13,1.7,1.34,4.43-1,5.94-1.56a10.65,10.65,0,0,1,5.34-.37,2.67,2.67,0,0,0-.46-1.37C29.85,105.57,30.09,105.83,30,104.62Z"/><path class="cls-6" d="M38.39,108.75c-1.08-8.21-2.8-16.36-3.61-24.56-1.82,7.88-3.3,15.8-3.11,23.88a8.78,8.78,0,0,1-2.29,6.48q0,1.94,0,3.88a5.72,5.72,0,0,1-1.54,3.81c3-1.84,5.87-4,7.6-4.94.25,1.27-.05,12,.29,13.52,1.33,0,3,.1,4.78.13C39.12,123.73,39.31,115.71,38.39,108.75Z"/><path class="cls-7" d="M15.23,116.91c.39,5.1,6.23,9.14,12.25,5.86,6.56-3.57,16.67-18.52,17.45-22.44C45.4,98,41.7,95.26,37,97.82A33.83,33.83,0,0,1,30,103.61c-3.85,2.44-7.23,2.86-9.25,3.9C18.14,108.84,14.74,110.54,15.23,116.91Z"/><g class="cls-8"><path class="cls-9" d="M18.59,122.56h0a8.33,8.33,0,0,0,8.91.21c6.56-3.57,16.67-18.52,17.45-22.44a2.18,2.18,0,0,0-.12-1.2C39,109,29.79,119.5,18.59,122.56Z"/></g><path class="cls-6" d="M21.35,125.09c-4.24-.52-6-8.19-6.51-12.14-.78-5.82-2.31-24.19-1.1-37C14.5,67.83,16.38,57.25,24,52.4a10.71,10.71,0,0,1,2-1l-.14-.13s-15,2.64-13.49,42.27c.77,20.6.8,30,7.75,31.78a5.07,5.07,0,0,0,2.62-.19A8.33,8.33,0,0,1,21.35,125.09Z"/><path class="cls-6" d="M116.12,91.24a7.23,7.23,0,0,1-2.37-3c-2.58-5.64-10.32-8.86-14-12.26a40,40,0,0,0-8.59-6c-3-1.58-4.14-4.24-6.73-6.25-.88-.69-6.78.48-6.32,1.5,1.93,4.36,1.84,8.44,1.42,12.51,6.08,10.27,12,20.77,17.57,31.33-1-3.41-1.75-6.39-2-7.82C99.26,101,108.71,96.56,116.12,91.24Z"/><path class="cls-10" d="M84.33,67.76l19.85,14.32s-9.79,12-13.77,10.59C84.47,90.58,84.33,67.76,84.33,67.76Z"/><path class="cls-7" d="M48.45,46.7s-2.67-5.1-4.6-9.45c.92-2.84-.33-10-.33-10s2.84,1.67.92-7.27c-1-4.67-2.63-4.11-2.63-4.11l-.39-.63c-.15,0-.3,0-.45,0-11.26-.14-25-5.16-31.52,7.15a5.56,5.56,0,0,1-2.71,2.45C6.67,27,8.09,30,8.26,31.62A5,5,0,0,1,8,33.85a10.28,10.28,0,0,0,5,2.48s-2.18.42.34,2.17c5.35,3.73,4.42,1.77,5.69,1.25,4.51,3.68,6,5,11.12,5.77,1.66.25,4.51,1.5,5.52.92a43.35,43.35,0,0,1,2.76,4.85c.59,1.33,4.1,4.43,7.78,1.92C49.47,51,48.45,46.7,48.45,46.7Z"/><path d="M48.51,89.44S48,87.71,48.77,87c1.85-1.57,3.17-2.65,3.37-4,1.5-.52,2.18,1.66,1.92,5.36-.24,3.47-.57,5.06-2,4.87C51.77,92,48.51,89.44,48.51,89.44Z"/><path class="cls-10" d="M31,26.22a2.07,2.07,0,0,0,1.77,2.36c1.86.29,3.34-.69,3.53-2.26s-.59-2.26-2.06-2.16S31,26.22,31,26.22Z"/><path class="cls-11" d="M32.63,27.39v-.2c.13,1.27,2.22,1.4,2.63.3a1.34,1.34,0,0,0-.73-1.67,1.42,1.42,0,0,0-1.16-.1c-.46.16-.67.77-.84.49Z"/><path class="cls-12" d="M33.82,27.09a.52.52,0,0,0,0,.58.68.68,0,0,0,.64.23.64.64,0,0,0,.18-.68C34.55,27,34,26.79,33.82,27.09Z"/><path class="cls-13" d="M30.25,28.23c.57-.23,2.32-1.32,3.48-2a32.61,32.61,0,0,1,3.61-1.76s-2.76-1.9-5.33-.19C30.19,25.48,30.25,28.23,30.25,28.23Z"/><circle class="cls-10" cx="34.3" cy="27.6" r="0.23"/><circle class="cls-10" cx="33.24" cy="27.55" r="0.13"/><path class="cls-11" d="M30.25,28.23a27.47,27.47,0,0,1,3.12-2.51c2.08-1.16,3.22-.91,4-1.83-.12,1.22-1.1,2.2-3.52,2.81A21.23,21.23,0,0,0,30.25,28.23Z"/><path class="cls-10" d="M18.43,32.55c.39.85.59,1.75,1.67,1.93a3.42,3.42,0,0,0,2.75-.67,2.1,2.1,0,0,0,.62-2.24C22.64,29.66,20.28,30.33,18.43,32.55Z"/><path class="cls-11" d="M20.78,32.36a1.22,1.22,0,0,0,1.85,1.34,1.32,1.32,0,0,0,.49-1.57c-.44-.94-1.39-.53-1.89-.45Z"/><path class="cls-12" d="M21.66,32.73a.57.57,0,0,0,.83.7C23.07,33.08,22.4,32.15,21.66,32.73Z"/><circle class="cls-10" cx="22.48" cy="33.26" r="0.23"/><circle class="cls-10" cx="21.41" cy="33.21" r="0.13"/><path class="cls-13" d="M17.74,35.2s.72-.55,2.68-2.12a20.91,20.91,0,0,1,3.39-2.28s-3.11-1.89-5.19.12A4.23,4.23,0,0,0,17.74,35.2Z"/><path class="cls-11" d="M24,30.74s-3.89,1.33-4.63,2.16a5.77,5.77,0,0,1-2.17,1.76s1.42.84,3.62-1.3A39.86,39.86,0,0,1,24,30.74Z"/><path class="cls-14" d="M31.59,20.71a4.69,4.69,0,0,1,5.2.59,8.69,8.69,0,0,0-4.51.59,9.26,9.26,0,0,0-3.39,3.2l-1.21-.62C27.46,24.38,30,21.38,31.59,20.71Z"/><path class="cls-14" d="M22,26.83l.28,1.38S17,28,15.84,30.5s-.28,3.77-.28,3.77-1.41-1.32-.55-3.95C16.3,26.37,22,26.83,22,26.83Z"/><path d="M95.07,67.7c-1.44-.76-3.38,0-4.83,1.54C89,70.54,88.33,73,86.81,74s-7.86,1-9.56,0-1.37-2.63-2.5-4.84-2.61-2.06-4.38-3.41c-1,3.8-3.22,9-.15,10.71-.22,2.74-2,6.58-1.38,10.13a6.69,6.69,0,0,1-1.93,6.09,16.74,16.74,0,0,1-4.48,3,36.81,36.81,0,0,0-14.29,11.29c-4.24,5.73-5.13,22.26-5.07,28.84,0,3.92,0,8.61,4,10.83,4.13,2.32,12.65,2,17,1.78a18,18,0,0,1,4.1-.23c1,.18,1.84,1,2.76,1.14,2.2.24,4.35-.75,4.49-3.13,1.31,1.56,2,3.36,4.51,3,1.64-.27,4.49-1.36,2.41-2.65,7,3.68,6-6.81.85-3.83-2.05-4.21,4.75-25.85,8.06-32.58,2.35-4.78,1.48-9.37-.9-13.61a4,4,0,0,1,.82-4.89c3.49-3.32,3.08-9.09,1.44-14C96.82,75.65,93.84,70.58,95.07,67.7Z"/><path class="cls-15" d="M79.94,142.47c.16,2.11,2.91,2,2.94,3.18,0,.61-1.56,1.28-2,1.42-1.89.66-3.19-.33-4.07-2-2-3.71-2.36-8.08-4.38-11.9-3.74-7.08-12.12-18.54-8.13-27,2.06-4.37,6.57-7.09,11.3-5.77,3.09.86,6.9,4.29,6.76,7.71-.24,6-4.46,8.16-4.73,14.22C77.5,125.88,79.25,133.53,79.94,142.47Z"/><path class="cls-15" d="M70.58,141.27c0,4.28-9.07,5-12,5.37-4.59.58-8.11.08-7.55-5.45.45-4.37,2.1-8.9,3.69-13,1.12-2.87,3.14-5.58,6.57-5s5.47,3,6.83,6C69.73,132.83,70.81,139.05,70.58,141.27Z"/><path class="cls-16" d="M89.68,81.46c3.09-7-16.49-9.35-15.67-.15.86-.58,3.19-1.14,4.12-.61,1.87,1.07,1.17,2,1.11,3.9,0,1.41.59,3.06,2.4,3.06,2.23,0,2.85-1.9,2.83-3.21C84.44,82.38,84.46,79.47,89.68,81.46Z"/><path class="cls-17" d="M86.64,89.47c.7,4.11-11.22,4.6-10.32-.35.34-1.87,3.12-2.94,5.39-2.87C84.26,86.33,86.19,86.81,86.64,89.47Z"/><path class="cls-8" d="M89.74,82c-.11-.11-2.93-1.56-4.19-.33A2.06,2.06,0,0,0,84.88,84a3.2,3.2,0,0,0,3.15.52A3.37,3.37,0,0,0,89.74,82Z"/><path class="cls-8" d="M79.05,83.94c0-.22.15-2.52-1.37-2.86a5.93,5.93,0,0,0-3.19.41s-.3,2.26,1.19,2.71A6.28,6.28,0,0,0,79.05,83.94Z"/><path class="cls-18" d="M88.85,82.08s.35,2-1.45,2.3a2.43,2.43,0,0,1-2.3-.56A2.27,2.27,0,0,1,86,82,2.53,2.53,0,0,1,88.85,82.08Z"/><path class="cls-18" d="M78.65,83.6c0-.19.19-1.78-1-2.15a4.33,4.33,0,0,0-2.6.22s-.37,2.19,1.22,2.38A3.45,3.45,0,0,0,78.65,83.6Z"/><path class="cls-19" d="M84,86.51a13.65,13.65,0,0,0-2.26-.26,6.17,6.17,0,0,0-2.42.25L81.62,89Z"/><path d="M86.77,82.36c-.08-.27-.11-.32-.1-.15a2,2,0,0,0,0,.3,1.89,1.89,0,0,1,0,.2c0,.09,0,.19,0,.27s.08-.07-.05.08l1.45.6c0-.24,0-.48,0-.73a2.8,2.8,0,0,0-.33-1.18c-.27-.54-1-.32-1.18.15a4,4,0,0,0-.15,1.75.86.86,0,0,0,1.45.6,1.49,1.49,0,0,0,.53-1.06,3.15,3.15,0,0,0-.13-.74c-.15-.53-.44-1.15-1.08-1.16A.62.62,0,0,0,86.77,82.36Z"/><path d="M76.72,81.55a1.93,1.93,0,0,0-.2.75,2.65,2.65,0,0,0-.1.32c0,.23-.23.07.13,0l1,1a4.29,4.29,0,0,0,.17-1.68c-.05-.41-.61-.82-.94-.39a4.54,4.54,0,0,0-.8,1.63.83.83,0,0,0,1,1,1.7,1.7,0,0,0,.5-2.84A.57.57,0,0,0,76.72,81.55Z"/><path class="cls-16" d="M93.8,68.51A8.21,8.21,0,0,0,90,73.16c-.46,1.38-.44,3.29,1.37,3.59,1.31.22,2.36-1,2.6-2.2C94.29,73,93.06,70.84,93.8,68.51Z"/><path class="cls-16" d="M70.91,67.4c2.34.29,5.55,5.92,2.41,7.63C68.27,77.78,70.44,69.3,70.91,67.4Z"/><path class="cls-20" d="M84.26,87.24c1.49,0,3,2.29,1.91,3.53-.65.73-2.62.64-3.4.25C80.93,90.11,82.17,87.82,84.26,87.24Z"/><path class="cls-20" d="M79.55,87.06c1.32.74,2.41,2.55.87,3.72a3.26,3.26,0,0,1-3.49,0C75.38,89.29,77,87,79.55,87.06Z"/><path class="cls-4" d="M1.8,15.75A35.26,35.26,0,0,0,1.06,35.3c2.71,10.79,5.09,12.07,11.66,2.08.56-.85,4,2.12,4.52,1,.12-2.89-7.49-8.85-5.48-15.94a14.94,14.94,0,0,0,1.5,7.71C15,26.44,15.5,19.23,16.85,16.48a37.2,37.2,0,0,0-1.07,6.8,12.83,12.83,0,0,0,7.41-9.19c.37.88,2.23,3.15,4.59,3,7.21-.48,13.49,7.29,14,2.81.16-.65-.76-3.3-.34-3.67,2-1.75,4.63,4.92,4.63,4.35,0-.41-1.47-8.76-3.67-11.75C35.8,12.06,10.58,16.07,1.8,15.75Z"/><path class="cls-21" d="M28.53,41.25a11.07,11.07,0,0,0,4.27-.9c1.54-.86,4.49-3.48,4.51-3.37a4.3,4.3,0,0,1-.05.94c-.07.64-.41,3.49-2.19,4a9.48,9.48,0,0,1-4.71.4C28.46,41.78,28.53,41.25,28.53,41.25Z"/><path class="cls-10" d="M30.68,42.21s1-.19,1.89-.33a5.28,5.28,0,0,0,2.6-1.17c.52-.49,1.83-1.61,1.83-1.61A1.79,1.79,0,0,1,36.44,41a6.78,6.78,0,0,1-3.1,1.63A3.73,3.73,0,0,1,30.68,42.21Z"/><path class="cls-10" d="M29.74,41.34a6,6,0,0,0,3.32-.11c3.15-1.14,3-3,3-2.95a6.33,6.33,0,0,1-2.46,1.94C32.29,40.66,29.74,41.34,29.74,41.34Z"/><path class="cls-22" d="M37.42,36.52A15.16,15.16,0,0,1,33,40,21,21,0,0,1,27.9,41.2l1.92,1c1.79.93,3.29,1.36,4.95.56a4.12,4.12,0,0,0,2.62-3.87A16.17,16.17,0,0,1,37.42,36.52Zm-3.07,5c-2.44,1.36-5.8-.13-5.8-.13a16.25,16.25,0,0,0,4.67-.69c1.77-.73,3.95-3.42,3.95-3.42A5.64,5.64,0,0,1,34.35,41.48Z"/><path class="cls-23" d="M27.39,40.81l.16.75s.38-.32.35-.37S27.39,40.81,27.39,40.81Z"/><polygon class="cls-23" points="37.42 36.52 37.23 36.09 37.75 36.23 37.42 36.52"/><circle class="cls-10" cx="76.07" cy="82.37" r="0.46"/><circle class="cls-10" cx="86.62" cy="82.5" r="0.52"/><path d="M97.17,85.58c-1.83,2.56-6.34,1.87-7.61,1.93-1.83.09-3.93-.36-5.11,1.94,1.44-1.77,4.82-1.2,7-1.18s5.12-.41,5.9-2.88Z"/><path d="M95.93,89.06c-3.26,2.65-8.71-2.1-11.66,1.18,1.68-1.21,4.55.07,6.39.07a14.22,14.22,0,0,0,2.5,0A7.09,7.09,0,0,0,95.93,89.06Z"/><path d="M79.61,89.65c-2.15-5-9.8-.53-12.52-4.59.44.6,1.68.64,2.37.79A24,24,0,0,0,74.9,86c1.9,0,4.78,1.46,4.71,3.66Z"/><path d="M79.48,90.43c-.18-.68-1.12-1-1.71-1.25a7.3,7.3,0,0,0-4.61-.33c-2.25.47-4.87.95-6.92-.26a14,14,0,0,0,2.4.3A13.09,13.09,0,0,0,72.73,88a4.91,4.91,0,0,1,4.14.18c.53.27,2.65,1.49,2.61,2.25Z"/><g class="cls-24"><path class="cls-25" d="M37.48,25.35a8.32,8.32,0,0,0-3.64,2.23C32,30,33.88,32.2,36,33.66,44.09,39.29,44.94,23.45,37.48,25.35Z"/></g><g class="cls-26"><path class="cls-27" d="M21.2,33.19a8.31,8.31,0,0,0-3.64,2.23c-1.87,2.37.05,4.62,2.15,6.07C27.82,47.13,28.67,31.29,21.2,33.19Z"/></g><path class="cls-7" d="M106.75,80.08c-5.28,4-15.16,13.43-31.16,21.57-.24.12,2.53,6,2.53,6A164.65,164.65,0,0,0,101.4,100c11-4.36,15.38-8.24,20.56-12.19,1.51-1.15,5-6,.86-9.32C118.29,75,111.12,76.73,106.75,80.08Z"/><g class="cls-8"><path class="cls-9" d="M101.12,96.61c-4.81,2.58-10,5.49-15.52,7.26-2.95,1.48-6,2.52-8.83,2.26.38,1,.71,1.79.71,1.79a164.54,164.54,0,0,0,23.28-7.59c11-4.36,15.13-8.1,20.31-12,1.38-1,6.16-5.07,3.55-8.14C118.09,86.56,109.29,92.23,101.12,96.61Z"/></g><path class="cls-7" d="M76.49,101.94a27.46,27.46,0,0,0-5.83-.94,21.6,21.6,0,0,0-4.39,1.68c-2.78,1.87-4.48,1.2-4.48,1.2,0,.19-.15,1.55,1,1.88s4-.89,4.32-1.11c-.06.14-3.45,2-3.74,2.16a32.74,32.74,0,0,0-2.74,4.24c-.63,1.16-2.88,5-3.23,5.81a1.24,1.24,0,0,0,.23,1.32c.33.29,1.37-.51,1.71-.7-.1.18-1.84,2.23-1.45,3.07a.83.83,0,0,0,1,.43c.56-.22,2.46-2.68,3.48-4,0,.28-2.12,3.66-2.12,4.77,0,.69.73.65,1.32.44.89-.31,1.11-1.29,1.73-2a28.18,28.18,0,0,0,2-3.62c-.29.72-.83,2.32-1.12,3.07-.2.51,0,1.49.34,1.65s1.14-.21,1.53-1.11c.49-1.14,2.82-5.3,3.62-6.71a26.89,26.89,0,0,0,4.71-2c3-1.76,4.28-3.38,4.51-4.14C79.09,106.89,78.15,102.7,76.49,101.94Z"/><g class="cls-8"><path class="cls-9" d="M78,104.57c-1-1.64-4.08-2.73-8-3-.26,0-2.38,2.76-2.62,2.89l-.78.44c.29-.13.51-.24.6-.29-.05.11-3.17,2.13-3.33,2.31a3.59,3.59,0,0,0-.71,1.35c-.08.52.52.48.91.46a.79.79,0,0,1,.71.38c.28.47-.44.92,0,1.4s.64-.07.91.21c.45.47-.07.86.36,1.23.59.52.73-.27,1.14,0s-.13.71.34,1.1c.28.23,1.08-.18,1.06.19a13.79,13.79,0,0,1-1.12,2.3,26.21,26.21,0,0,1-2.88,5.67l-.06.05.06,0c.38.18,1.14-.21,1.53-1.11.49-1.14,2.82-5.3,3.62-6.71a26.89,26.89,0,0,0,4.71-2,18.14,18.14,0,0,0,4.41-3.83C79.2,106.69,78.78,105.83,78,104.57Z"/></g><g class="cls-8"><path class="cls-9" d="M64.32,104.25a5.13,5.13,0,0,0,1.83-1.1,8.24,8.24,0,0,0,1.06-.95,6.72,6.72,0,0,0-.95.48c-2.75,1.85-4.44,1.22-4.48,1.2S62,104.74,64.32,104.25Z"/></g><g class="cls-8"><path class="cls-9" d="M61.93,109.79a4.41,4.41,0,0,1-.27-.4c-.45.74-.84,1.41-1,1.68-.63,1.16-2.88,5-3.23,5.81a1.28,1.28,0,0,0-.07.74.54.54,0,0,1,.18-.07.62.62,0,0,1,.09-.13C59.29,115.74,61.61,110.3,61.93,109.79Z"/></g><g class="cls-8"><path class="cls-9" d="M63.45,111.53l-.36-.37a.48.48,0,0,1-.1.34c-1.1,1.52-1.8,3.21-2.75,4.82a7.4,7.4,0,0,1-1.33,1.83c-.52.72-1.24,1.85-1,2.42a.83.83,0,0,0,.36.36,1.44,1.44,0,0,1,.18-1.14,39.57,39.57,0,0,1,2.51-3.9C61.65,114.82,63.32,111.85,63.45,111.53Z"/></g><g class="cls-8"><path class="cls-9" d="M64.16,113.45a8.27,8.27,0,0,1-.76,1.56l-.3.62a10.31,10.31,0,0,1-.52,1.16l-.3.51c-.45.89-2,3.53-2,4.48,0,.41.26.56.59.57-.42-.77.33-2,.72-2.64.65-1.1,1.22-2.39,1.81-3.52s1-2.1,1.58-3.13c-.1-.09-.18-.42-.28-.51A4.38,4.38,0,0,1,64.16,113.45Z"/></g><path class="cls-9" d="M76.92,109.33a28.11,28.11,0,0,1-7,3.49c-1.22,1-1.94,2.82-2.65,4.18-.82,1.57-1.56,3.73-2.65,4.38.4.1,1.08-.29,1.45-1.13.49-1.14,2.82-5.3,3.62-6.71a26.89,26.89,0,0,0,4.71-2c2.56-1.5,4-2.95,4.41-3.83C78.23,108.15,77.45,109,76.92,109.33Z"/><path class="cls-9" d="M60.35,122.13a2.25,2.25,0,0,0,1.67-.5c1-.67,4.63-7.65,4.63-7.65s-3.15,7.18-4.16,7.82C60.81,122.85,60.35,122.13,60.35,122.13Z"/><path class="cls-9" d="M57.86,120.68a1.63,1.63,0,0,0,1.51.21c.72-.36,1.93-2.06,3.25-4.16a21.74,21.74,0,0,0,2.1-4.17s-3.11,5.11-4.15,6.56C59,121.34,57.86,120.68,57.86,120.68Z"/><path class="cls-9" d="M63.12,111.22c-.13.15-2.06,4.09-3,5.32s-1.09,1.55-1.55,1.71a1.31,1.31,0,0,1-.9-.05s.51.3,1.14-.43C59.69,116.75,63.12,111.22,63.12,111.22Z"/><path class="cls-9" d="M62,105a1.64,1.64,0,0,0,1.74.91,11.5,11.5,0,0,0,3.44-1.21,20.46,20.46,0,0,1-3.42.73A3.34,3.34,0,0,1,62,105Z"/><path class="cls-28" d="M43.86,37.25c-.33.25-3.26,6.1-4.68,7.36a10.3,10.3,0,0,1-3.51,1.84l2.26,3.68s3.26-.5,4.26-4.77S43.86,37.25,43.86,37.25Z"/><path class="cls-28" d="M33.05,34.91s-.36,1.31-1.17,1.68a10.37,10.37,0,0,1-2,.89A3.73,3.73,0,0,1,28,37a4.09,4.09,0,0,0,2.12,1,3.44,3.44,0,0,0,2.75-1.52A3,3,0,0,0,33.05,34.91Z"/><path class="cls-6" d="M84.64,65.71c-.57-1.21-.24-2.65-.2-3.93,0-.79.42-2.81-.87-2.3-2.16.84-.53,5-.68,6.42-2-.35-.93-5.6-3.33-5.67s1.51,5.11,1.5,6.07c-1.28-.09-2.24-4.39-3.76-3.52-.75.43.47,2.18.83,2.57C79.44,66.73,82,67,84.64,65.71Z"/><path class="cls-6" d="M59.24,35.9s-6,15.48-8.45,24-5.87,24.21-5.87,24.21l-9-13.46,1.22-1,6.84,11.23c0-.08,3.17-11.23,5.86-22a124.85,124.85,0,0,1,7.81-21.24l-11,5.45L45.9,41.7Z"/><path class="cls-6" d="M35.92,46.88a22.38,22.38,0,0,0-5.37,1.45,44.51,44.51,0,0,0-5.4,3.06L35.83,70.12,37,69.56c-.6-1.68-7.5-13.41-9.54-16.88a.93.93,0,0,1,.38-1.3c.82-.42,2.07-1,3.21-1.6a38.84,38.84,0,0,1,5.54-1.87A10.68,10.68,0,0,0,35.92,46.88Z"/><path d="M49.76,143.57c-1.24-8.64-8.72-5.87-14-5.09-6.67,1-13.91.39-18.91-4.8-1.45-1.5-1.9-7.07-6.64-8.9-4-1.52-6.33,2.75-6.22,6.29.4,13,16.61,16.24,26.69,14.18,3.9-.8,20.89-10.09,18.81-.75Z"/><path d="M48.82,86.84a28.53,28.53,0,0,0-9.73.54,7.83,7.83,0,0,1-9.48-6.5c-1.25-8.38,9-9.6,12.31-15.63a1.15,1.15,0,0,0,0-.12A6.18,6.18,0,0,0,43.73,64c4.68-4.06-.27-11.71.56-15.5,4.27-19.46,7.91-26.25-.25-28-1.1-.24-1.25,1.13.75,1.76,4.81,1.5,2.39,6.4,1.83,9.84-.49,3-3.71,14.27-3.59,18.67.1,3.52,2.43,5.32.87,9.85-1,2.86-4,3.61-6.62,2.62s-4.19-3.34-5.45-5.65c-.67-1.24-.89-2.36-2.18-2.91-2-.85-17.32-13.79-14.26-15.34,1-.51.2-1.63-.75-1C8.75,42.27,28.4,55.15,29.47,56.21s2.09,3.92,2.89,5a9.39,9.39,0,0,0,7.25,4.31C37,68.84,32.66,70.14,30,73.38a10.09,10.09,0,0,0-1,11.07,9.53,9.53,0,0,0,9.3,4.83A48.13,48.13,0,0,1,48.59,89C50.27,89.14,50.52,87,48.82,86.84Z"/><path class="cls-7" d="M33.85,90.59l-.4,1.88a1.37,1.37,0,0,0,.61,1.44h0a1.38,1.38,0,0,1,.64,1.19l0,.87a1.37,1.37,0,0,0,.9,1.32l.41.15a1.37,1.37,0,0,1,.9,1.15l0,.18a1.37,1.37,0,0,0,1,1.17l.33.1a1.37,1.37,0,0,1,.83.7l.22.44c.26.52,1,.32,1.61.14,2.1-.66,6.71-3.43,7.07-4.33s-.39-1.5-.73-1.75.36-1,.51-1.48a1.45,1.45,0,0,0-.16-1.26,1.47,1.47,0,0,0-2-.39,1.81,1.81,0,0,0,.84-2.24c-.75-1.88-2.51-.5-2.51-.5s2.07-1.14.75-2.6c-1-1.06-7.88,1.88-10,2.84A1.37,1.37,0,0,0,33.85,90.59Z"/><g class="cls-8"><path class="cls-9" d="M45.6,92.12A2.11,2.11,0,0,0,46.5,91a20.46,20.46,0,0,1-7.84,3.53l-.29.1c1.07.5,4.39-.7,5.94-1.3.7-.27,1.4-.51,2.11-.75l.82-.39A1.58,1.58,0,0,0,45.6,92.12Z"/><path class="cls-9" d="M47.67,94.2l-.21.07c-1,.48-2,1-3,1.41a45.19,45.19,0,0,1-4.65,2c1.57.29,4.34-1,5.1-1.44,1-.53,1.23-.66,2.18-1.18C46.87,94.78,47.67,94.2,47.67,94.2Z"/><path class="cls-9" d="M45.7,89.08c-.75-.49-1.58.14-1.75.26a3.64,3.64,0,0,0,.66-.66l-.23.06C42.19,90,39,90.57,36.74,91.86,39.73,91.79,42.89,89.92,45.7,89.08Z"/><path class="cls-9" d="M45.18,98.33c-1,.51-4.53,2.86-5.64,1.7-.31-.33-.48-.78-.95-.92a.94.94,0,0,1-.62-.77c0-.74-.07-1.77-1-1.81a1,1,0,0,1-.86-1.08c0-.78-.11-2-.94-2.33s-.6-2.18,0-2.62A24.4,24.4,0,0,1,40,88.12a29.6,29.6,0,0,1,3.7-1.21l.54-.32c-1.8-.33-7.63,2.16-9.59,3a1.37,1.37,0,0,0-.78,1l-.4,1.88a1.37,1.37,0,0,0,.61,1.44,1.38,1.38,0,0,1,.64,1.19l0,.87a1.37,1.37,0,0,0,.9,1.32l.41.15a1.37,1.37,0,0,1,.9,1.15l0,.18a1.37,1.37,0,0,0,1,1.17l.33.1a1.37,1.37,0,0,1,.83.7l.22.44c.26.52,1,.32,1.61.14C43,100.67,48,97.2,48,97.13,47.47,97,46.29,97.77,45.18,98.33Z"/></g><path class="cls-9" d="M36.7,91.79A67.1,67.1,0,0,0,44,88.9c1.49-.87,0-2.12,0-2.12s2.08.9.45,2.23a28.7,28.7,0,0,1-6.05,2.56C37.05,91.93,36.7,91.79,36.7,91.79Z"/><path class="cls-9" d="M46.59,90.08s.27.78-.16,1.2A19.22,19.22,0,0,1,42,93.78a25.19,25.19,0,0,1-3.85.93A38.44,38.44,0,0,0,42.94,93,11.29,11.29,0,0,0,46,91.07,2.57,2.57,0,0,0,46.59,90.08Z"/><path class="cls-9" d="M47.77,92.94s.51.41-.2,1.34S44.5,96,42.94,96.7a24.43,24.43,0,0,1-3.13,1s1.78-.85,3.56-1.64a29.28,29.28,0,0,0,3.85-1.92A1.77,1.77,0,0,0,47.77,92.94Z"/><path class="cls-9" d="M41.44,101s2.64-1,3.84-1.71a7.75,7.75,0,0,0,2.61-2.21s-.86.56-1.84,1.15C44,99.51,41.44,101,41.44,101Z"/><path class="cls-7" d="M44.22,86.58c.33-.13,3.38-.47,4.57.36.94.65.29,1.84-.78,1.84s-4,.37-4,.37.77-.33.81-1A3.24,3.24,0,0,0,44.22,86.58Z"/><path class="cls-29" d="M43.53,86.61c.32-.13,4.08-.5,5.26.33.94.65.35,1.81-.78,1.84a17.22,17.22,0,0,0-4.4.52s1.09-.69,1.13-1.34S43.53,86.61,43.53,86.61Z"/><path class="cls-7" d="M45.66,89s1.87-.8,2.36.43c.42,1.05-.16,1.27-.73,1.76a5.17,5.17,0,0,1-1.43.73c.45-.65.85-.9.73-1.55A2.46,2.46,0,0,0,45.66,89Z"/><path class="cls-29" d="M45.66,89s1.81-.77,2.36.43c.42.91-.1,1.31-.73,1.76a6.87,6.87,0,0,1-1.43.73c.45-.65.85-.9.73-1.55A2.46,2.46,0,0,0,45.66,89Z"/><path class="cls-9" d="M44.47,88.45l4.45-.13s0,.37-1.07.39a21.2,21.2,0,0,0-4,.47A4.17,4.17,0,0,1,44.47,88.45Z"/><path class="cls-30" d="M34.93,48.27c.15.34.89,1.55,1.83,3.09a11.3,11.3,0,0,0,3,2.88s-5.09,1.47-7.37,1.27-6.77-3.15-6.7-3.35a16.3,16.3,0,0,1,4.22-2.28C32,49.08,34.93,48.27,34.93,48.27Z"/></g></g></svg>