<svg xmlns="http://www.w3.org/2000/svg" viewBox="0 0 156.33 137.42"><defs><style>.cls-1{fill:#ccbeb8;}.cls-2{fill:#806e51;}.cls-3{fill:#a18b66;}.cls-4{fill:#026471;}.cls-5{fill:#00444d;}.cls-6{fill:#004e58;}.cls-7{fill:#02545e;}.cls-8{fill:#e82626;}.cls-9{fill:#cc6101;}.cls-10{fill:#005f6b;}.cls-11{fill:#b05401;}.cls-12{fill:#e8c431;}.cls-13{fill:#ad1c1c;}.cls-14{fill:#1c2124;}</style></defs><title>Asset 4</title><g id="Layer_2" data-name="Layer 2"><g id="Objects"><ellipse class="cls-1" cx="52.37" cy="130.21" rx="52.37" ry="7.21"/><path class="cls-2" d="M43.24,120.47c-.52,1.41,1,2.82,2.52,3s3-.41,4.46-.48a6.91,6.91,0,0,1,6.86,5.29A3.07,3.07,0,0,0,54.52,127a15.27,15.27,0,0,0-3,.38,14.9,14.9,0,0,1-9.87-1.86l-12.15,8a7.78,7.78,0,0,1,2.21-7.6l-11.3,1c-.05-1.87,1.58-3.45,3.37-4a14,14,0,0,1,5.58-.11,11.48,11.48,0,0,0,5.55-.35,6.11,6.11,0,0,0,3.72-5.2V101.83h4.21Z"/><path class="cls-3" d="M59.45,123c-.52,1.41,1,2.82,2.52,3s3-.41,4.46-.48a6.91,6.91,0,0,1,6.86,5.29,3.07,3.07,0,0,0-2.56-1.29,15.26,15.26,0,0,0-3,.38A14.9,14.9,0,0,1,57.89,128l-12.15,8A7.78,7.78,0,0,1,48,128.4l-11.3,1c-.05-1.87,1.58-3.45,3.37-4a14,14,0,0,1,5.58-.11,11.48,11.48,0,0,0,5.55-.35,6.11,6.11,0,0,0,3.72-5.2V104.34h4.21Z"/><path class="cls-4" d="M17.29,13.41s6.09-.23,8,8A34.81,34.81,0,0,1,41.87,44.54S52.64,48,58.49,60.69L69,62.56l20.19-7.29L100.39,64S82.83,97.67,58.26,107.74c0,0-6.09,2.11-11.24-4.68a8.92,8.92,0,0,1-5.15,3.74c-3.75.94-8.66-9.13-8.66-9.13s-18-3-29-24.81,7.72-35.34,7.72-35.34S6.06,11.3,17.29,13.41Z"/><path class="cls-5" d="M78.52,44A63.8,63.8,0,0,1,89,39.24a33.82,33.82,0,0,1,10-1.84,22.92,22.92,0,0,1,9.39,1.66,19.08,19.08,0,0,1,4.09,2.33,17.16,17.16,0,0,1,3.27,3.27,21.08,21.08,0,0,1,2.41,4.21,31.11,31.11,0,0,1,1.61,4.94,67.11,67.11,0,0,1,1.47,11.09c.24,3.88.42,7.92,1,12a36.17,36.17,0,0,0,3.4,11.75l.67-.21c-1.09-7.88.43-15.36,1.19-23.4a56.56,56.56,0,0,0,0-12.56,33.6,33.6,0,0,0-1.46-6.51,26.28,26.28,0,0,0-3-6.3,23.49,23.49,0,0,0-4.81-5.35A26.22,26.22,0,0,0,112,30.55a27,27,0,0,0-13.78-2.26,25.42,25.42,0,0,0-12.54,5.06A25,25,0,0,0,81.08,38,20.11,20.11,0,0,0,78,43.58Z"/><path class="cls-6" d="M73.49,52.29c1.77-.33,3.21-.56,4.55-.69s2.58-.12,3.73-.13,2.25.07,3.31.15,2.08.18,3.08.31a17.13,17.13,0,0,1,2.93.58,15.31,15.31,0,0,1,2.77,1.17,19,19,0,0,1,5,4,23.65,23.65,0,0,1,3.81,5.77,26.31,26.31,0,0,1,1.3,3.36c.35,1.21.7,2.54,1,4s.74,2.9,1.24,4.42a20.41,20.41,0,0,0,2.1,4.46,13.7,13.7,0,0,0,3.34,3.66,8.61,8.61,0,0,0,4.45,1.77l.24-.66a10.4,10.4,0,0,1-3.77-6.61,19.7,19.7,0,0,1-.31-3.76c0-1.3.05-2.66.08-4.09s.08-2.95,0-4.56c0-.8-.16-1.64-.27-2.48-.05-.42-.14-.83-.23-1.24s-.17-.83-.29-1.24a28.27,28.27,0,0,0-4.23-9.31,28.79,28.79,0,0,0-3.43-4,25.52,25.52,0,0,0-4.27-3.32,24.21,24.21,0,0,0-5-2.36,23.76,23.76,0,0,0-5.47-1.1,18.44,18.44,0,0,0-5.49.48,17.28,17.28,0,0,0-5,2.17,14.56,14.56,0,0,0-3.9,3.78,10.24,10.24,0,0,0-1.81,5Z"/><path class="cls-7" d="M137.84,73.92a33.41,33.41,0,0,0-3.57-13.59,42.72,42.72,0,0,0-3.73-6.22q-1.07-1.49-2.3-2.9c-.85-.91-1.71-1.77-2.6-2.6a61.62,61.62,0,0,0-11.79-8.69,34.5,34.5,0,0,0-7.36-3.12A21.2,21.2,0,0,0,102,36a16.08,16.08,0,0,0-5.37.55l4.15,11.94a5.52,5.52,0,0,1,3.53-.6,23.51,23.51,0,0,1,5.49,1.15,53,53,0,0,1,11.34,5.37c.9.56,1.78,1.14,2.61,1.75s1.69,1.22,2.5,1.89a37.69,37.69,0,0,1,4.56,4.5A31,31,0,0,1,137.14,74Z"/><path class="cls-6" d="M69.36,60.94a7.64,7.64,0,0,1,3.13-2.21,7.73,7.73,0,0,1,3.27-.51,9.85,9.85,0,0,1,5.48,2.41,18.83,18.83,0,0,1,4.08,5.07c.59,1,1.19,2.12,1.72,3.26.29.56.57,1.11.8,1.7s.52,1.14.72,1.74.47,1.17.68,1.76l.59,1.8c.36,1.21.73,2.43,1,3.68A58.33,58.33,0,0,1,92.1,87.3a61.78,61.78,0,0,1,.23,8c-.09,2.72-.36,5.47-.73,8.36l.64.28a29.13,29.13,0,0,0,4.46-7.68A35.39,35.39,0,0,0,99,87.48a39.81,39.81,0,0,0-1.89-18.23c-.23-.74-.57-1.45-.85-2.18s-.61-1.43-1-2.14a29.77,29.77,0,0,0-2.36-4.13,20.61,20.61,0,0,0-7.6-6.92,15.15,15.15,0,0,0-5.21-1.53,12.21,12.21,0,0,0-2.76,0,10.62,10.62,0,0,0-2.7.65,10,10,0,0,0-4.28,3.09,7.31,7.31,0,0,0-1.68,4.59Z"/><path class="cls-8" d="M59.18,71.15c.42,5.15,1.36,10.59,4.76,14.48A29.68,29.68,0,0,1,63,74.32a61.11,61.11,0,0,0,7.12,21,35.4,35.4,0,0,1-.42-13.81,52.87,52.87,0,0,0,7.68,23c-.48-4.31,0-8.4.22-12.56-.11,6,3.22,12.16,8,15.86-2.66-5.67-1.78-9.21-1.35-13.75-.76,4.77,2.14,9.89,4.82,13.91-1-5.16-.88-9.89-.61-15.14a20.2,20.2,0,0,0,4.09,13.22,76.43,76.43,0,0,0-4.83-37c-1.38-3.49-3.13-7-6.09-9.32a9.32,9.32,0,0,0-10.51-.84,10.58,10.58,0,0,1-7.76.6c-1.67-.49-5.23-3.68-6.79-1.76-1,1.21,1.72,4.34,1.9,5.66C58.86,66,59,68.58,59.18,71.15Z"/><path class="cls-4" d="M143.22,89.66c-3.5-1.29-5.81-4-7.74-6.94-1-1.48-1.83-3-2.7-4.67s-1.7-3.25-2.54-4.89c-1.67-3.3-3.31-6.67-5.15-10-.93-1.68-1.86-3.38-2.92-5s-2-3.23-3.14-4.85-2.3-3.23-3.59-4.81c-7-8.57-18.28-15-29.41-10.81a19,19,0,0,0-5.69,3.35,28.84,28.84,0,0,0-6.92,8c.1-.54,3-1.46,3.56-1.65a23.57,23.57,0,0,1,4-1c7.93-1.4,16.89.17,23.18,5.42a54.86,54.86,0,0,1,7,7.41c1.13,1.38,2.27,2.83,3.4,4.29s2.2,2.85,3.27,4.34c2.17,3,4.34,6,6.68,9.08a68.35,68.35,0,0,0,7.78,8.74,22.13,22.13,0,0,0,5,3.47,14.26,14.26,0,0,0,2.88,1,11.45,11.45,0,0,0,3,.29Z"/><path class="cls-4" d="M74.54,59.5c1.22-.35,2.25-.64,3.3-.88S79.9,58.18,81,58a16.86,16.86,0,0,1,6.43.12,13.68,13.68,0,0,1,6,3.35,25.22,25.22,0,0,1,4.89,6.41c2.67,4.95,3.44,11,3.44,17a75.68,75.68,0,0,1-2.47,18.37l.65.26a57.92,57.92,0,0,0,3.7-8.85,63.19,63.19,0,0,0,2.35-9.41,49,49,0,0,0,.7-9.9,38.1,38.1,0,0,0-.51-5.09c-.15-.85-.33-1.7-.55-2.55s-.39-1.69-.64-2.53a30.23,30.23,0,0,0-4.68-9.74,23.71,23.71,0,0,0-4-4.23A22.24,22.24,0,0,0,91,48.11a20.64,20.64,0,0,0-12.16-1.39,16.85,16.85,0,0,0-5.8,2.4c-1.76,1.17-5.56,5.83-7.32,11Z"/><path class="cls-4" d="M78.37,44.54a37.23,37.23,0,0,1,8.94-10.85,31.89,31.89,0,0,1,5.25-3.48A30.41,30.41,0,0,1,98.13,28a31.29,31.29,0,0,1,5.85-1.1,29.18,29.18,0,0,1,6,0,28.3,28.3,0,0,1,5.8,1.33,27.62,27.62,0,0,1,5.46,2.63,28.59,28.59,0,0,1,4.92,3.77,30.53,30.53,0,0,1,4.14,4.72A35.67,35.67,0,0,1,133.56,45c1,2,1.87,4.25,2.77,6.51s1.75,4.64,2.74,7c.48,1.19,1,2.38,1.54,3.56s1.11,2.35,1.79,3.55a15.9,15.9,0,0,0,5.76,6.32,9,9,0,0,0,4.2,1.16,6.39,6.39,0,0,0,4-1.16l-.31-.63a6.25,6.25,0,0,1-5.91-2,9.48,9.48,0,0,1-1.67-2.61,19,19,0,0,1-1.07-3.13c-1.17-4.54-1.81-9.4-2.8-14.4a74.52,74.52,0,0,0-1.89-7.67,43.87,43.87,0,0,0-3.25-7.76,41,41,0,0,0-5-7.06,39.29,39.29,0,0,0-6.51-5.81,37,37,0,0,0-7.78-4.22,35.55,35.55,0,0,0-8.67-2.22A32.87,32.87,0,0,0,93.9,16.78a29.61,29.61,0,0,0-7.56,4.81,28.06,28.06,0,0,0-5.57,6.75,25,25,0,0,0-3.07,7.91,19.85,19.85,0,0,0,0,8.18Z"/><path class="cls-9" d="M49.13,51.21S69,54,74.29,89.6c0,0,.82,6-3.31,6.33a21.46,21.46,0,0,1-6.52.23c-3,2-6.12,1.93-11.82.18C35.92,91.18,30,76.49,29.82,69.64S49.13,51.21,49.13,51.21Z"/><path class="cls-6" d="M42.69,44.66S62.59,47.41,67.85,83c0,0,.82,6-3.31,6.33A21.46,21.46,0,0,1,58,89.6c-3,2-6.11,1.93-11.82.18C29.49,84.63,23.56,69.93,23.38,63.09S42.69,44.66,42.69,44.66Z"/><path class="cls-9" d="M48.85,53.37A17,17,0,0,1,41.11,48a26.8,26.8,0,0,0,5.56,8.42,16.58,16.58,0,0,1-8.09-6.63,23.41,23.41,0,0,0,4.93,9.62,17.3,17.3,0,0,1-6.79-7.69A26.54,26.54,0,0,0,40,60.83a17.66,17.66,0,0,1-5.76-7.15A14.11,14.11,0,0,1,32.9,66.11a25.68,25.68,0,0,0-.66-11,19.11,19.11,0,0,1-3.45,12.32,25.28,25.28,0,0,0,0-13,25.54,25.54,0,0,1-4.21,13.93,20.39,20.39,0,0,0,1-13.3,24.61,24.61,0,0,1-4.42,14.3,38.2,38.2,0,0,0,1.86-11.85,33,33,0,0,1-7.77,17.91A35.43,35.43,0,0,0,19.4,60.41a37.92,37.92,0,0,1-5.12,11.69l1.24-10.21a30.58,30.58,0,0,0-2.66,12.25A24.24,24.24,0,0,1,12,62.79a18.22,18.22,0,0,0-1.22,12.08A38.64,38.64,0,0,1,9,61.14,17.44,17.44,0,0,0,7.8,73.62,30.41,30.41,0,0,1,5,57.5a17.93,17.93,0,0,0-1.56,9.78A41.71,41.71,0,0,1,1.21,54.44c2.15-10.73,10.7-16.93,10.7-16.93s-8-24.28,5.38-24.11c0,0,6.09-.23,8,8A34.81,34.81,0,0,1,41.87,44.54S46.07,51.11,48.85,53.37Z"/><path class="cls-10" d="M43,94.8A43.93,43.93,0,0,0,49.86,106,14.43,14.43,0,0,1,47,103.17a8.93,8.93,0,0,1-5.15,3.75c-3.75.94-8.66-9.13-8.66-9.13s-18-3-29-24.81A30.28,30.28,0,0,1,.75,60.65C10.59,99.93,43,94.8,43,94.8Z"/><path class="cls-11" d="M1.21,54.44C3.37,43.71,13.08,39,9.66,26.52c3.52,4,4.27,9.95,4.26,15.17A36.07,36.07,0,0,1,12,53.33C10.71,57,8.87,60.41,9,64.46c0-1.11,0-2.22,0-3.32A17.44,17.44,0,0,0,7.8,73.62,30.41,30.41,0,0,1,5,57.5a17.93,17.93,0,0,0-1.56,9.78A41.71,41.71,0,0,1,1.21,54.44Z"/><path class="cls-12" d="M11,21.09a3.06,3.06,0,0,0-2-1.48,3.67,3.67,0,0,0-2,.32,9.43,9.43,0,0,0-4.93,4.61c.36-.75,9.47.09,10.69,0C12.72,23.62,11.49,21.9,11,21.09Z"/><path class="cls-13" d="M7,27.62A19.54,19.54,0,0,0,3.9,31.8a4.55,4.55,0,0,0,.41,4.91,3.88,3.88,0,0,0,4.44.63,6,6,0,0,0,2.89-3.67A13.36,13.36,0,0,0,12,28.92a9.47,9.47,0,0,0-.69-3.38C9.6,21.82,8.35,26,7,27.62Z"/><path class="cls-8" d="M8.15,28.79c-.89,1.59-2.09,3-2.84,4.65a7.45,7.45,0,0,0-.55,4.72A5.28,5.28,0,0,0,7.68,41.8,4.11,4.11,0,0,0,12.16,41a6.53,6.53,0,0,0,1.45-3.57A32.2,32.2,0,0,0,14,31.93a11.79,11.79,0,0,0-.91-5c-.44-.92-2.1-3.34-3.42-2.77-.74.33-.48,1.25-.58,1.92A8.16,8.16,0,0,1,8.15,28.79Z"/><path class="cls-8" d="M18.68,16.36A6.28,6.28,0,0,1,21.23,20c.56,2.26-1.45,4.61-3.52,5.18a7,7,0,0,1-6.46-2c-1.12-1.08-2-2.71-1.44-4.17a6.33,6.33,0,0,1,5.74-3.71A5.74,5.74,0,0,1,18.68,16.36Z"/><path class="cls-8" d="M27.89,15.14c-2.26.57-4.64.11-7-.19s-4.82-.37-6.81.86a25.19,25.19,0,0,0-3.21,2.9A4.54,4.54,0,0,1,7,20.08a3.68,3.68,0,0,1-2.28-2A8.83,8.83,0,0,1,4,15a30.76,30.76,0,0,1-.11-4.62,3.37,3.37,0,0,1,.43-1.74,1.25,1.25,0,0,1,1.58-.49c1.18.71-.19,3,.9,3.79a1.23,1.23,0,0,0,1.56-.21,2.4,2.4,0,0,0,.59-1.57,17.18,17.18,0,0,0-.41-3.26,4.06,4.06,0,0,1,.6-3.14A1.88,1.88,0,0,1,12,3.61c.58.81.17,1.92-.14,2.86s-.34,2.25.56,2.66,1.8-.4,2-1.29a6.58,6.58,0,0,0-.22-2.71,10.94,10.94,0,0,1-.13-2.89A2.1,2.1,0,0,1,14.86.52a1.56,1.56,0,0,1,2,.7,4.1,4.1,0,0,1,.4,2.25,5.71,5.71,0,0,0,.22,2.29,1.56,1.56,0,0,0,1.82,1.06c.9-.34.9-1.64.5-2.51s-1.06-1.72-.95-2.67A2,2,0,0,1,20.95,0a2.34,2.34,0,0,1,1.94,2c.11.78-.15,1.58,0,2.35s.93,1.56,1.62,1.19A1.34,1.34,0,0,0,24.93,4a9.31,9.31,0,0,1-.47-1.65,1.83,1.83,0,0,1,3.59-.56,4.1,4.1,0,0,1-.11,1.78A2.82,2.82,0,0,0,28,5.35a1.09,1.09,0,0,0,1.49.54c.54-.38.41-1.23.75-1.79a1.64,1.64,0,0,1,2.5,0C36.12,7.85,31.82,14.15,27.89,15.14Z"/><circle class="cls-12" cx="15.57" cy="20.09" r="2.05"/><circle class="cls-14" cx="15.57" cy="20.09" r="1.08"/></g></g></svg>