<svg xmlns="http://www.w3.org/2000/svg" viewBox="0 0 107.77 105.18"><defs><style>.cls-1{fill:#ccbeb8;}.cls-2{fill:#ab5101;}.cls-3{fill:#874001;}.cls-4{fill:#cc6101;}.cls-5{fill:#823e01;}.cls-6{fill:#d1a3a3;}.cls-7{fill:#d6955a;}.cls-8{fill:#211915;}.cls-9{fill:#e86e01;}.cls-10{fill:#8a603a;}.cls-11{fill:#fff;}.cls-12{fill:#de8a8a;}</style></defs><title>Asset 3</title><g id="Layer_2" data-name="Layer 2"><g id="Objects"><ellipse class="cls-1" cx="52" cy="96.91" rx="52" ry="8.28"/><path class="cls-2" d="M6.3,84.86a4.72,4.72,0,0,0-.82,3c.12,1.57,1.26,3,2.24,4.06a12.93,12.93,0,0,0,5.08,3.5l-1.26.48A.62.62,0,0,0,11.39,97a10.84,10.84,0,0,0,9.69,1.65,3.32,3.32,0,0,0,1.65-1.08c1.12-1.48.09-3.17-.94-4.44a45.53,45.53,0,0,0-6.7-7.23c-2.19-1.74-5.78-4-8.27-1.64A3.86,3.86,0,0,0,6.3,84.86Z"/><path class="cls-3" d="M54,95.86a4.36,4.36,0,0,0,3.13-3.51,4,4,0,0,0-2.41-3.74,7.51,7.51,0,0,0-4.63-.38,6.78,6.78,0,0,0-3.28,1.44,3.45,3.45,0,0,0-1.19,3.24C46.42,96.3,51.36,96.74,54,95.86Z"/><path class="cls-3" d="M88.24,70.07s-5.47,12-2.56,17.4c0,0,7.06-.35,9.1,3.79a2.56,2.56,0,0,1-2.15,3.67l-9.28.55a8.36,8.36,0,0,1-6.86-2.93l-6.16-7.24a19.4,19.4,0,0,1-4.62-13.18l.34-10.92S75.81,51,88.24,70.07Z"/><path class="cls-4" d="M95.41,55.19a27.9,27.9,0,0,0-2.1-4.78,23.12,23.12,0,0,0-1.78-2.78L73.67,35.07c.32,3.77-2,6.85-4.87,9.2-15.83-2.45-29-1.81-42.64,8.67C13.46,62.7,11.39,73.67,11,80.51A16.35,16.35,0,0,0,23,97.08c20.3,5.73,41-10.17,41-10.17l.79-.18C97.61,79.45,98.43,64.34,95.41,55.19Z"/><path class="cls-2" d="M95.41,55.19a27.9,27.9,0,0,0-2.1-4.78,23.12,23.12,0,0,0-1.78-2.78l-15.11,4.2C76,55.74,77.64,59,85,64.1c0,0,5,4,.79,7.32C79.86,76.11,72,79.7,66.66,82c-1.31.55-3.62-18.34-4.15-17.47-6.6,10.85-1.33,19.74-2.3,20.13a102.36,102.36,0,0,1-11.13,3.89C54,92.39,55,76.6,46.66,71.06c-2.57-1.55-12.9,20.4-16.91,20.88-5.38.64-9.84,1.16-14.16.73A16.86,16.86,0,0,0,23,97.08c20.3,5.73,41-10.17,41-10.17l.79-.18C97.61,79.45,98.43,64.34,95.41,55.19Z"/><path class="cls-2" d="M79.31,30.1S71,10,78.56,0c0,0,10.16,9.11,9.13,30.63Z"/><path class="cls-5" d="M78.57,30.85S72.08,10.63,77.72.75c0,0,7.81,9.21,7.23,30.71Z"/><path class="cls-4" d="M62.56,2.76A39.5,39.5,0,0,1,81.91,27.29l7,2.7a31.09,31.09,0,0,1,14.72,11.84l1.81,2.74A9.17,9.17,0,0,1,107,50.36c-.16,2-1,4.09-3.69,4.42,0,0-20.59,15.3-27.53-1.73,0,0-1.47-2.68-.49-10.65,0,0-.09-6.05-4-10.08S59.33,17.66,62.56,2.76Z"/><path class="cls-6" d="M64.13,6.91s12.42,8,11.7,26.21C75.83,33.12,62.28,25.72,64.13,6.91Z"/><path class="cls-4" d="M15.92,73A22.54,22.54,0,0,1,27.59,64.7a18.6,18.6,0,0,1,9.91-.37,15.68,15.68,0,0,1,7.46,26,8.66,8.66,0,0,1,4.22,1.55,4.66,4.66,0,0,1,1.93,3.92,3.22,3.22,0,0,1-2.9,3c-1.28,1.39-3.34,1.65-5.22,1.83-5.58.52-11.39,1-16.61-1a36.26,36.26,0,0,1-7.06-4c-3.12-2.11-7.24-5.31-7.62-9.4C11.29,81.69,13.35,76.55,15.92,73Z"/><path class="cls-4" d="M84.23,72.6s-5.47,12-2.56,17.4c0,0,7.39-.37,9.24,4.09a2.48,2.48,0,0,1-2.2,3.36L79.35,98a8.36,8.36,0,0,1-6.86-2.93l-6.16-7.24A19.4,19.4,0,0,1,61.7,74.67L62,63.75S71.8,53.53,84.23,72.6Z"/><path class="cls-7" d="M84.62,35.79c-1.57.46-3,1.93-2.8,3.56a3.51,3.51,0,0,0,2,2.6,8.75,8.75,0,0,0,3.36.7,7.54,7.54,0,0,0,3.52-.42,3,3,0,0,0,1.88-2.78C92.33,36.17,87.1,35.06,84.62,35.79Z"/><ellipse class="cls-8" cx="87.65" cy="39.28" rx="2.57" ry="1.89" transform="translate(-1.48 3.48) rotate(-2.25)"/><ellipse class="cls-9" cx="84.49" cy="48.87" rx="6.05" ry="4.27" transform="translate(-1.86 3.36) rotate(-2.25)"/><path class="cls-9" d="M80.75,56.14a11.33,11.33,0,0,1-5.62-5.77A8.5,8.5,0,0,0,75.79,53c6.94,17,27.53,1.73,27.53,1.73,2.69-.32,3.53-2.41,3.69-4.42a8.33,8.33,0,0,0,0-1,27.89,27.89,0,0,1-16.29,8.11A18.11,18.11,0,0,1,80.75,56.14Z"/><path class="cls-2" d="M93.41,49.43a3.86,3.86,0,0,0-.07,4,4.19,4.19,0,0,0,2.42,1.55,7.7,7.7,0,0,0,7.08-1.7,3.6,3.6,0,0,0,1.38-2.81c-.18-2-3.11-3.43-4.9-3.73A5.82,5.82,0,0,0,93.41,49.43Z"/><path class="cls-2" d="M104.06,50a5.26,5.26,0,0,0-.47,3.52,1.16,1.16,0,0,0,.34.82,1.17,1.17,0,0,0,1.29-.13,5.28,5.28,0,0,0,2.18-2.65c.27-.75.77-2.91-.2-3.4S104.49,49.34,104.06,50Z"/><path class="cls-7" d="M104.49,47a4.18,4.18,0,0,1-2.23-.69c-.39-.22-.88-.48-1.26-.24s-.36.82-.23,1.25a3.92,3.92,0,0,0,2.58,2.65,2.92,2.92,0,0,0,3.31-1.34,4.21,4.21,0,0,0,.55-1.66c.08-.86-.37-1.52-1-1S105.39,46.93,104.49,47Z"/><path class="cls-10" d="M104.4,48.1a2,2,0,0,1-1-.32c-.18-.11-.41-.22-.59-.11s-.17.38-.11.59a1.84,1.84,0,0,0,1.21,1.24,1.37,1.37,0,0,0,1.55-.63,2,2,0,0,0,.26-.78c0-.41-.17-.71-.48-.48S104.82,48.08,104.4,48.1Z"/><circle class="cls-11" cx="86.58" cy="37.99" r="0.9" transform="translate(-1.43 3.43) rotate(-2.25)"/><path class="cls-12" d="M66.56,8.91c-.38,12,5.68,19,9.28,22A30.56,30.56,0,0,0,66.56,8.91Z"/><ellipse class="cls-9" cx="42.57" cy="93.54" rx="5.73" ry="2.21" transform="matrix(1, -0.04, 0.04, 1, -3.65, 1.75)"/><ellipse class="cls-9" cx="84.68" cy="93.54" rx="1.96" ry="4.58" transform="translate(-19.22 165.12) rotate(-82.41)"/><path class="cls-2" d="M13,74.06C17,61.67,28,53.27,40.37,50.24c5.18-1.27,10.74-1.35,16-1.47A22.14,22.14,0,0,0,65.54,47c.85-.41,2.85-1.46,3.44-3-1.08.11-13.33-1.71-21.2-.39a47.71,47.71,0,0,0-19.84,8q-.9.64-1.78,1.31C13.46,62.7,11.39,73.67,11,80.51a15.84,15.84,0,0,0,3.35,10.7A22.11,22.11,0,0,1,13,74.06Z"/></g></g></svg>